<svg width="37" height="40" viewBox="0 0 37 40" fill="none" xmlns="http://www.w3.org/2000/svg">
<g clip-path="url(#clip0_23_13)">
<path d="M30.0625 16.25C30.0625 19.8359 28.9857 23.1484 27.1719 25.8359L36.3207 35.7344C37.224 36.7109 37.224 38.2969 36.3207 39.2734C35.4174 40.25 33.9504 40.25 33.0471 39.2734L23.8982 29.375C21.4123 31.3438 18.3482 32.5 15.0312 32.5C6.72793 32.5 0 25.2266 0 16.25C0 7.27344 6.72793 0 15.0312 0C23.3346 0 30.0625 7.27344 30.0625 16.25ZM15.0312 27.5C16.3978 27.5 17.751 27.209 19.0135 26.6436C20.2761 26.0783 21.4233 25.2496 22.3896 24.205C23.3559 23.1603 24.1224 21.9201 24.6454 20.5552C25.1683 19.1903 25.4375 17.7274 25.4375 16.25C25.4375 14.7726 25.1683 13.3097 24.6454 11.9448C24.1224 10.5799 23.3559 9.33971 22.3896 8.29505C21.4233 7.25039 20.2761 6.42172 19.0135 5.85636C17.751 5.29099 16.3978 5 15.0312 5C13.6647 5 12.3115 5.29099 11.049 5.85636C9.78641 6.42172 8.63923 7.25039 7.67292 8.29505C6.70661 9.33971 5.94009 10.5799 5.41713 11.9448C4.89417 13.3097 4.625 14.7726 4.625 16.25C4.625 17.7274 4.89417 19.1903 5.41713 20.5552C5.94009 21.9201 6.70661 23.1603 7.67292 24.205C8.63923 25.2496 9.78641 26.0783 11.049 26.6436C12.3115 27.209 13.6647 27.5 15.0312 27.5Z" fill="black"/>
</g>
<defs>
<clipPath id="clip0_23_13">
<rect width="37" height="40" fill="white"/>
</clipPath>
</defs>
</svg>
